<?xml version="1.0" standalone="no"?>
<!DOCTYPE svg PUBLIC "-//W3C//DTD SVG 20010904//EN"
 "http://www.w3.org/TR/2001/REC-SVG-20010904/DTD/svg10.dtd">
<svg version="1.0" xmlns="http://www.w3.org/2000/svg"
 width="200.000000pt" height="200.000000pt" viewBox="0 0 200.000000 200.000000"
 preserveAspectRatio="xMidYMid meet">

<g transform="translate(0.000000,200.000000) scale(0.100000,-0.100000)"
fill="#000000" stroke="none">
<path d="M915 1618 c-52 -117 -235 -553 -235 -563 0 -6 22 -63 49 -126 37 -85
54 -114 68 -114 14 0 34 37 85 160 38 88 77 178 87 200 l19 40 27 -60 c15 -33
42 -96 61 -140 18 -44 55 -132 82 -195 27 -63 82 -194 122 -290 41 -96 79
-178 85 -182 5 -4 53 -8 106 -8 71 0 100 4 108 14 9 11 -6 56 -73 213 -46 109
-130 306 -186 438 -56 132 -121 285 -144 340 -24 55 -63 146 -87 203 l-43 102
-58 0 c-56 0 -59 -1 -73 -32z"/>
<path d="M505 566 c-43 -19 -66 -49 -71 -93 -9 -71 43 -126 117 -125 37 1 49
6 77 36 25 28 32 44 32 76 0 77 -87 136 -155 106z"/>
</g>
</svg>
